<svg width="145" height="80" xmlns="http://www.w3.org/2000/svg">
 <g>
  <title>background</title>
  <rect fill="none" id="canvas_background" height="82" width="82" y="-1" x="-1"/>
 </g>

 <g>
  <title>Layer 1</title>
  <rect fill="#ffffff" stroke-width="0" x="19.54268" y="13.30229" width="99" height="40.48941" id="svg_1" stroke="#000"/>
  <g id="svg_2">
   <path id="svg_3" fill="#6ec6f0" d="m115.88952,57.64793l-94,0c-3.309,0 -6,-2.691 -6,-6l0,-36c0,-3.309 2.691,-6 6,-6l94,0c3.309,0 6,2.691 6,6l0,36c0,3.309 -2.691,6 -6,6zm-94,-44c-1.103,0 -2,0.897 -2,2l0,36c0,1.103 0.897,2 2,2l94,0c1.103,0 2,-0.897 2,-2l0,-36c0,-1.103 -0.897,-2 -2,-2l-94,0z"/>
  </g>
  <g stroke="null" id="svg_4">
   <path stroke="null" id="svg_5" fill="#6ec6f0" d="m68.88227,71.57178c-1.104,0 -2,-0.78591 -2,-1.75427l0,-12.27992c0,-0.96836 0.896,-1.75427 2,-1.75427s2,0.78591 2,1.75427l0,12.27992c0,0.96836 -0.896,1.75427 -2,1.75427z"/>
  </g>
  <g id="svg_6">
   <path id="svg_7" fill="#6ec6f0" d="m80.88227,71.57178l-24,0c-1.104,0 -2,-0.896 -2,-2s0.896,-2 2,-2l24,0c1.104,0 2,0.896 2,2s-0.896,2 -2,2z"/>
  </g>
  <text stroke="#ffffff" transform="matrix(1.3680180759160976,0,0,1.2333079366417026,-14.180719450202915,-9.002373412093801) " xml:space="preserve" text-anchor="start" font-family="Helvetica, Arial, sans-serif" font-size="20" id="svg_14" y="44.22574" x="26.35231" stroke-width="0" fill="#000" font-style="normal" font-weight="normal">console</text>
 </g>
</svg>